<svg width="20" height="20" viewBox="0 0 20 20" fill="none" xmlns="http://www.w3.org/2000/svg">
<path d="M14.1667 4.16667L15.8333 4.16667V5.83333L17.5 5.83333V7.5H19.1667V5.83333H17.5V4.16667H15.8333V2.5L14.1667 2.5V4.16667Z" fill="currentColor"/>
<path d="M12.5 10.8333V12.5H9.16666L9.16666 7.5H10.8333V10.8333H12.5Z" fill="currentColor"/>
<path fill-rule="evenodd" clip-rule="evenodd" d="M7.49999 5.83333H5.83333L5.83333 7.5H4.16666L4.16666 9.16667L2.5 9.16667L2.5 14.1667H4.16666V17.5H7.49999V19.1667H12.5V17.5H15.8333L15.8333 14.1667H17.5V9.16667H15.8333V7.5L14.1667 7.5L14.1667 5.83333H12.5L12.5 4.16667L7.49999 4.16667V5.83333ZM7.49999 5.83333H12.5V7.5L14.1667 7.5V9.16667L15.8333 9.16667V14.1667L14.1667 14.1667L14.1667 15.8333H12.5L12.5 17.5H7.49999V15.8333H5.83333V14.1667L4.16666 14.1667L4.16666 9.16667H5.83333V7.5H7.49999V5.83333Z" fill="currentColor"/>
<path d="M5.83333 4.16667L4.16666 4.16667L4.16666 2.5L5.83333 2.5L5.83333 4.16667Z" fill="currentColor"/>
<path d="M2.5 5.83333L4.16666 5.83333V4.16667H2.49999L2.5 5.83333Z" fill="currentColor"/>
<path d="M2.5 5.83333V7.5H0.833329L0.833328 5.83333H2.5Z" fill="currentColor"/>
</svg>
