<svg width="40" height="40" viewBox="0 0 40 40" fill="none" xmlns="http://www.w3.org/2000/svg">
<path d="M11.6667 15V11.6667H8.33332V15H11.6667Z" fill="#146E7A"/>
<path d="M11.6667 25V28.3333H8.33332V25H11.6667Z" fill="#146E7A"/>
<path d="M28.3333 25H31.6667V28.3333H28.3333V25Z" fill="#146E7A"/>
<path fill-rule="evenodd" clip-rule="evenodd" d="M11.6667 1.66666V4.99999H8.33332V8.33332H4.99999V11.6667H1.66666V28.3333H4.99999V31.6667H8.33332V35H11.6667V38.3333H28.3333V35H31.6667V31.6667H35V28.3333H38.3333V11.6667H35V8.33332H31.6667V4.99999H28.3333V1.66666H11.6667ZM21.6667 18.3333V4.99999H28.3333V8.33332H31.6667V11.6667H28.3333V15H25V18.3333H21.6667ZM18.3333 18.3333V4.99999L11.6667 4.99999V8.33332H8.33332V11.6667H4.99999V18.3333L11.6667 18.3333V15H15V18.3333L18.3333 18.3333ZM4.99999 21.6667L4.99999 28.3333H8.33332V31.6667H11.6667V35H18.3333V21.6667H15V25H11.6667V21.6667H4.99999ZM21.6667 21.6667V35H28.3333V31.6667H31.6667V28.3333H35V21.6667L28.3333 21.6667V25H25V21.6667L21.6667 21.6667ZM35 18.3333V11.6667H31.6667V15H28.3333V18.3333H35Z" fill="#146E7A"/>
</svg>
