<svg width="40" height="40" viewBox="0 0 40 40" fill="none" xmlns="http://www.w3.org/2000/svg">
<path d="M18.3334 5H21.6667V8.33333H18.3334V5Z" fill="#146E7A"/>
<path d="M11.6667 11.6667V8.33333H18.3334V11.6667H11.6667Z" fill="#146E7A"/>
<path d="M5.00002 15V11.6667H11.6667V15H5.00002Z" fill="#146E7A"/>
<path d="M5.00002 18.3333H1.66669V15H5.00002V18.3333Z" fill="#146E7A"/>
<path fill-rule="evenodd" clip-rule="evenodd" d="M11.6667 21.6667V18.3333H5.00002V21.6667H8.33335V31.6667H11.6667V35H28.3334V31.6667H31.6667V21.6667H35V28.3333H38.3334V21.6667H35V18.3333H38.3334V15H35V11.6667H28.3334V8.33333H21.6667V11.6667H28.3334V15H35V18.3333H28.3334V21.6667H21.6667V25H18.3334V21.6667H11.6667ZM11.6667 25V31.6667H28.3334V25H21.6667V28.3333H18.3334V25H11.6667Z" fill="#146E7A"/>
</svg>
