<svg width="32" height="32" viewBox="0 0 32 32" fill="none" xmlns="http://www.w3.org/2000/svg">
<path d="M17.3333 9.33331H20V12H17.3333V14.6666H20V17.3333H17.3333V20H20V22.6666H17.3333V25.3333H14.6667V22.6666H12V20H14.6667V17.3333H12V14.6666H14.6667V12H12V9.33331H14.6667V6.66665H17.3333V9.33331Z" fill="#FFC138"/>
<path d="M12 12V14.6666H9.33334V12H12Z" fill="#FFC138"/>
<path d="M20 20V17.3333H22.6667V20H20Z" fill="#FFC138"/>
<path fill-rule="evenodd" clip-rule="evenodd" d="M9.33334 1.33331V3.99998H6.66668V6.66665H4.00001V9.33331H1.33334V22.6666H4.00001V25.3333H6.66668V28H9.33334V30.6666H22.6667V28H25.3333V25.3333H28V22.6666H30.6667V9.33331H28V6.66665H25.3333V3.99998H22.6667V1.33331H9.33334ZM22.6667 3.99998V6.66665H25.3333V9.33331H28V22.6666H25.3333V25.3333H22.6667V28H9.33334V25.3333H6.66668V22.6666H4.00001V9.33331H6.66668V6.66665H9.33334V3.99998H22.6667Z" fill="#FFC138"/>
</svg>
