<svg width="32" height="32" viewBox="0 0 32 32" fill="none" xmlns="http://www.w3.org/2000/svg">
<path d="M14.6667 4H17.3334V6.66667H14.6667V4Z" fill="#146E7A"/>
<path d="M12 12V6.66667H14.6667V12H12Z" fill="#146E7A"/>
<path d="M9.33337 12H12V14.6667H9.33337V12Z" fill="#146E7A"/>
<path d="M6.66671 9.33333H9.33337V12H6.66671V9.33333Z" fill="#146E7A"/>
<path d="M4.00004 9.33333V6.66667H6.66671V9.33333H4.00004Z" fill="#146E7A"/>
<path d="M4.00004 22.6667V9.33333H1.33337V22.6667H4.00004Z" fill="#146E7A"/>
<path d="M28 22.6667V25.3333H4.00004V22.6667H28Z" fill="#146E7A"/>
<path d="M28 9.33333H30.6667V22.6667H28V9.33333Z" fill="#146E7A"/>
<path d="M25.3334 9.33333V6.66667H28V9.33333H25.3334Z" fill="#146E7A"/>
<path d="M22.6667 12V9.33333H25.3334V12H22.6667Z" fill="#146E7A"/>
<path d="M20 12H22.6667V14.6667H20V12Z" fill="#146E7A"/>
<path d="M20 12V6.66667H17.3334V12H20Z" fill="#146E7A"/>
</svg>
