<svg width="20" height="20" viewBox="0 0 20 20" fill="none" xmlns="http://www.w3.org/2000/svg">
<path fill-rule="evenodd" clip-rule="evenodd" d="M5.83333 2.5H4.16667V10.8333H2.5V15.8333H4.16667V17.5H5.83333V15.8333H7.5V10.8333H5.83333V2.5ZM4.16667 14.1667V12.5H5.83333V14.1667H4.16667Z" fill="currentColor"/>
<path fill-rule="evenodd" clip-rule="evenodd" d="M12.5 4.16667V9.16667H10.8333V17.5H9.16667V9.16667H7.5V4.16667H9.16667V2.5H10.8333V4.16667H12.5ZM10.8333 7.5V5.83333H9.16667V7.5H10.8333Z" fill="currentColor"/>
<path fill-rule="evenodd" clip-rule="evenodd" d="M14.1667 9.16667H12.5V14.1667H14.1667V17.5H15.8333V14.1667H17.5V9.16667H15.8333V2.5H14.1667V9.16667ZM14.1667 12.5H15.8333V10.8333H14.1667V12.5Z" fill="currentColor"/>
</svg>
