<svg width="24" height="24" viewBox="0 0 24 24" fill="none" xmlns="http://www.w3.org/2000/svg">
<path fill-rule="evenodd" clip-rule="evenodd" d="M18 2L16 2V4H14V6H12L12 8L10 8V10H8L8 12L6 12L6 18H12V16H14V14H16V12H18V10L20 10V8H22V6L20 6V4L18 4V2ZM18 4V6H20V8H18V10H16V12H14V14H12V16H10L10 14H8V12H10L10 10H12V8H14L14 6L16 6V4L18 4Z" fill="#121231"/>
<path d="M4 4L10 4V6L4 6L4 4Z" fill="#121231"/>
<path d="M4 20H2L2 6H4L4 20Z" fill="#121231"/>
<path d="M18 20L4 20L4 22L18 22V20Z" fill="#121231"/>
<path d="M18 20L18 14L20 14V20H18Z" fill="#121231"/>
</svg>
