<svg width="40" height="40" viewBox="0 0 40 40" fill="none" xmlns="http://www.w3.org/2000/svg">
<path d="M31.6667 3.33325V6.66659L21.6667 6.66659V3.33325L31.6667 3.33325Z" fill="#D10B00"/>
<path d="M18.3334 6.66659V9.99992L21.6667 9.99992V6.66659H18.3334Z" fill="#D10B00"/>
<path d="M8.33342 6.66659H18.3334V3.33325L8.33341 3.33325L8.33342 6.66659Z" fill="#D10B00"/>
<path d="M5.00008 9.99992H8.33342L8.33342 6.66659L5.00008 6.66659V9.99992Z" fill="#D10B00"/>
<path d="M5.00008 19.9999H1.66675L1.66675 9.99992L5.00008 9.99992L5.00008 19.9999Z" fill="#D10B00"/>
<path d="M8.33342 23.3333L8.33342 19.9999H5.00008V23.3333H8.33342Z" fill="#D10B00"/>
<path d="M11.6667 26.6666H8.33342L8.33342 23.3333H11.6667V26.6666Z" fill="#D10B00"/>
<path d="M15.0001 29.9999H11.6667L11.6667 26.6666H15.0001V29.9999Z" fill="#D10B00"/>
<path d="M18.3334 33.3333H15.0001V29.9999H18.3334V33.3333Z" fill="#D10B00"/>
<path d="M21.6667 33.3333V36.6666H18.3334V33.3333H21.6667Z" fill="#D10B00"/>
<path d="M25.0001 29.9999H21.6667V33.3333H25.0001V29.9999Z" fill="#D10B00"/>
<path d="M28.3334 26.6666V29.9999H25.0001V26.6666H28.3334Z" fill="#D10B00"/>
<path d="M31.6667 23.3333H28.3334V26.6666H31.6667V23.3333Z" fill="#D10B00"/>
<path d="M35.0001 19.9999H31.6667V23.3333H35.0001V19.9999Z" fill="#D10B00"/>
<path d="M35.0001 9.99992H38.3334V19.9999H35.0001V9.99992Z" fill="#D10B00"/>
<path d="M35.0001 9.99992V6.66659H31.6667V9.99992L35.0001 9.99992Z" fill="#D10B00"/>
</svg>
