<svg width="40" height="40" viewBox="0 0 40 40" fill="none" xmlns="http://www.w3.org/2000/svg">
<path d="M28.3333 29.3017V32.6351H11.6667V29.3017H28.3333Z" fill="#146E7A"/>
<path d="M8.33333 20.9684V27.6351H5V20.9684H8.33333Z" fill="#146E7A"/>
<path d="M35 20.9684V27.6351H31.6667V20.9684H35Z" fill="#146E7A"/>
<path d="M11.6667 27.6351V30.9684H8.33333V27.6351H11.6667Z" fill="#146E7A"/>
<path d="M31.6667 27.6351V30.9684H28.3333V27.6351H31.6667Z" fill="#146E7A"/>
<path d="M31.6667 17.6351V20.9684H8.33333V17.6351H31.6667Z" fill="#146E7A"/>
<path d="M33.8558 8.60351L25.5225 20.2702L22.8109 18.3333L31.1442 6.66666L33.8558 8.60351Z" fill="#146E7A"/>
<path d="M13.3333 14.3017V17.6351H10V14.3017H13.3333Z" fill="#146E7A"/>
<path d="M16.6667 12.6351V15.9684H13.3333V12.6351H16.6667Z" fill="#146E7A"/>
<path d="M20 14.3017V17.6351H16.6667V14.3017H20Z" fill="#146E7A"/>
<path d="M23.3333 12.6351V15.9684H20V12.6351H23.3333Z" fill="#146E7A"/>
<path d="M26.6667 14.3017V17.6351H23.3333V14.3017H26.6667Z" fill="#146E7A"/>
</svg>
