<svg width="32" height="32" viewBox="0 0 32 32" fill="none" xmlns="http://www.w3.org/2000/svg">
<path fill-rule="evenodd" clip-rule="evenodd" d="M13.3333 10.6667V13.3334H10.6667V18.6667H13.3333V21.3334H18.6667V18.6667H21.3333V13.3334H18.6667V10.6667H13.3333ZM18.6667 13.3334V18.6667H13.3333V13.3334H18.6667Z" fill="#146E7A"/>
<path fill-rule="evenodd" clip-rule="evenodd" d="M7.99999 2.66669H5.33332V5.33335H2.66666V8.00002H5.33332V13.3334H2.66666V18.6667H5.33332V24H2.66666L2.66666 26.6667H5.33332V29.3334H7.99999V26.6667H13.3333V29.3334H18.6667V26.6667H24V29.3334H26.6667V26.6667H29.3333V24H26.6667V18.6667H29.3333V13.3334H26.6667V8.00002H29.3333V5.33335H26.6667V2.66669H24V5.33335H18.6667V2.66669H13.3333V5.33335H7.99999V2.66669ZM7.99999 8.00002H13.3333V5.33335H18.6667V8.00002H24V13.3334H26.6667V18.6667H24V24H18.6667V26.6667H13.3333V24H7.99999V18.6667H5.33332V13.3334H7.99999V8.00002ZM7.99999 8.00002V5.33335H5.33332V8.00002H7.99999ZM24 8.00002H26.6667V5.33335H24V8.00002ZM24 24V26.6667H26.6667V24H24ZM7.99999 24H5.33332V26.6667H7.99999V24Z" fill="#146E7A"/>
</svg>
