<svg width="32" height="32" viewBox="0 0 32 32" fill="none" xmlns="http://www.w3.org/2000/svg">
<path d="M16 5.33335V2.66669H24V5.33335H16Z" fill="#146E7A"/>
<path d="M24 13.3334V5.33335H26.6667V13.3334H24Z" fill="#146E7A"/>
<path d="M24 16V13.3334H18.6667V16H24Z" fill="#146E7A"/>
<path d="M26.6667 18.6667H24V16H26.6667V18.6667Z" fill="#146E7A"/>
<path d="M26.6667 24V18.6667H29.3333V24H26.6667Z" fill="#146E7A"/>
<path d="M26.6667 24V26.6667H21.3333V24H26.6667Z" fill="#146E7A"/>
<path d="M16 5.33335V8.00002L7.99999 8.00002V5.33335H16Z" fill="#146E7A"/>
<path d="M7.99999 16L5.33332 16V8.00002H7.99999V16Z" fill="#146E7A"/>
<path fill-rule="evenodd" clip-rule="evenodd" d="M16 16L7.99999 16V18.6667H5.33332L5.33332 21.3334H2.66666V26.6667H5.33332V29.3334H18.6667V26.6667H21.3333V21.3334H18.6667V18.6667H16V16ZM16 18.6667V21.3334H18.6667V26.6667H5.33332V21.3334H7.99999V18.6667H16Z" fill="#146E7A"/>
<path d="M16 16H18.6667V8.00002L16 8.00002V16Z" fill="#146E7A"/>
</svg>
