<svg width="20" height="20" viewBox="0 0 20 20" fill="none" xmlns="http://www.w3.org/2000/svg">
<g clip-path="url(#clip0_578_5347)">
<path fill-rule="evenodd" clip-rule="evenodd" d="M5.83333 0.833344V2.50001H4.16666V4.16668H2.49999V5.83334H0.833328V14.1667H2.49999V15.8333H4.16666V17.5H5.83333V19.1667H14.1667V17.5H15.8333V15.8333H17.5V14.1667H19.1667V5.83334H17.5V4.16668H15.8333V2.50001H14.1667V0.833344H5.83333ZM14.1667 2.50001V4.16668H15.8333V5.83334H17.5V14.1667H15.8333V15.8333H14.1667V17.5H5.83333V15.8333H4.16666V14.1667H2.49999V5.83334H4.16666V4.16668H5.83333V2.50001H14.1667Z" fill="currentColor"/>
<path d="M7.5 4.16668H12.5V5.83334H7.5V4.16668Z" fill="currentColor"/>
<path d="M7.5 10.8333H5.83333V5.83334H7.5V10.8333Z" fill="currentColor"/>
<path d="M12.5 10.8333H7.5V12.5H5.83333V14.1667H4.16666V15.8333H5.83333V14.1667H7.5V12.5H12.5V14.1667H14.1667V15.8333H15.8333V14.1667H14.1667V12.5H12.5V10.8333Z" fill="currentColor"/>
<path d="M12.5 10.8333H14.1667V5.83334H12.5V10.8333Z" fill="currentColor"/>
</g>
<defs>
<clipPath id="clip0_578_5347">
<rect width="20" height="20" fill="white"/>
</clipPath>
</defs>
</svg>
