<svg width="24" height="24" viewBox="0 0 24 24" fill="none" xmlns="http://www.w3.org/2000/svg">
<path d="M20 7V5L18 5V7L16 7L16 9H18V11L20 11V9H22V7L20 7Z" fill="#121231"/>
<path d="M12 3V5L6 5V3L12 3Z" fill="#121231"/>
<path d="M6 11L4 11L4 5L6 5L6 11Z" fill="#121231"/>
<path fill-rule="evenodd" clip-rule="evenodd" d="M12 11L6 11V13H4L4 15H2L2 19H4V21L14 21L14 19H16V15H14V13H12V11ZM12 13V15H14V19L4 19L4 15H6V13L12 13Z" fill="#121231"/>
<path d="M12 11L14 11L14 5L12 5L12 11Z" fill="#121231"/>
</svg>
